<?xml version="1.0" standalone="no"?><!DOCTYPE svg PUBLIC "-//W3C//DTD SVG 1.1//EN" "http://www.w3.org/Graphics/SVG/1.1/DTD/svg11.dtd">
<svg x="0.0000mm" y="0.0000mm" width="53.4460mm" height="26.4580mm" viewBox="0.0000 0.0000 53.4460 26.4580" version="1.1" xmlns="http://www.w3.org/2000/svg" shape-rendering="crispEdges">
<title>TBarCode - 11.15.0.16817</title>
<desc>BarCode licensed to MEM:TEC-IT Datenverarbeitung GmbH Internal License</desc>
<g fill="rgb(0%,0%,0%)">
</g>
<g fill="rgb(100%,100%,100%)">
<rect x="0.0000" y="0.0000" width="53.4460" height="26.4580" />
</g>
<g fill="rgb(0%,0%,0%)">
</g>
<g fill="rgb(0%,0%,0%)">
<rect x="0.0000" y="0.0000" width="1.0583" height="20.1864" />
<rect x="1.5875" y="0.0000" width="0.5292" height="20.1864" />
<rect x="3.1750" y="0.0000" width="1.5875" height="20.1864" />
<rect x="5.8209" y="0.0000" width="0.5292" height="20.1864" />
<rect x="6.8792" y="0.0000" width="1.0583" height="20.1864" />
<rect x="8.9959" y="0.0000" width="1.5875" height="20.1864" />
<rect x="11.6417" y="0.0000" width="0.5292" height="20.1864" />
<rect x="13.7584" y="0.0000" width="0.5292" height="20.1864" />
<rect x="14.8167" y="0.0000" width="1.0583" height="20.1864" />
<rect x="17.4626" y="0.0000" width="1.5875" height="20.1864" />
<rect x="20.6376" y="0.0000" width="0.5292" height="20.1864" />
<rect x="21.6959" y="0.0000" width="1.0583" height="20.1864" />
<rect x="23.2834" y="0.0000" width="1.0583" height="20.1864" />
<rect x="26.4584" y="0.0000" width="0.5292" height="20.1864" />
<rect x="27.5168" y="0.0000" width="0.5292" height="20.1864" />
<rect x="29.1043" y="0.0000" width="0.5292" height="20.1864" />
<rect x="30.1626" y="0.0000" width="2.1167" height="20.1864" />
<rect x="32.8084" y="0.0000" width="1.5875" height="20.1864" />
<rect x="34.9251" y="0.0000" width="1.5875" height="20.1864" />
<rect x="37.5710" y="0.0000" width="0.5292" height="20.1864" />
<rect x="38.6293" y="0.0000" width="1.0583" height="20.1864" />
<rect x="40.7460" y="0.0000" width="0.5292" height="20.1864" />
<rect x="42.8626" y="0.0000" width="2.1167" height="20.1864" />
<rect x="45.5085" y="0.0000" width="0.5292" height="20.1864" />
<rect x="46.5668" y="0.0000" width="1.0583" height="20.1864" />
<rect x="49.2127" y="0.0000" width="1.5875" height="20.1864" />
<rect x="51.3293" y="0.0000" width="0.5292" height="20.1864" />
<rect x="52.3877" y="0.0000" width="1.0583" height="20.1864" />
</g>
<g fill="rgb(0%,0%,0%)">
<text x="26.7230" y="25.2821" transform="rotate(360 26.7230,25.2821)" text-anchor="middle" font-family="Arial" font-size="5.6444" >123456789</text>
</g>
</svg>
