<?xml version="1.0" standalone="no"?><!DOCTYPE svg PUBLIC "-//W3C//DTD SVG 1.1//EN" "http://www.w3.org/Graphics/SVG/1.1/DTD/svg11.dtd">
<svg x="0.0000mm" y="0.0000mm" width="152.4000mm" height="26.4580mm" viewBox="0.0000 0.0000 152.4000 26.4580" version="1.1" xmlns="http://www.w3.org/2000/svg" shape-rendering="crispEdges">
<title>TBarCode - 11.15.0.16817</title>
<desc>BarCode licensed to MEM:TEC-IT Datenverarbeitung GmbH Internal License</desc>
<g fill="rgb(0%,0%,0%)">
</g>
<g fill="rgb(100%,100%,100%)">
<rect x="0.0000" y="0.0000" width="152.4000" height="26.4580" />
</g>
<g fill="rgb(0%,0%,0%)">
</g>
<g fill="rgb(0%,0%,0%)">
<rect x="0.0000" y="0.0000" width="1.0583" height="20.1864" />
<rect x="1.5875" y="0.0000" width="0.5292" height="20.1864" />
<rect x="3.1750" y="0.0000" width="1.5875" height="20.1864" />
<rect x="5.8208" y="0.0000" width="0.5292" height="20.1864" />
<rect x="6.8792" y="0.0000" width="1.0583" height="20.1864" />
<rect x="8.9958" y="0.0000" width="1.5875" height="20.1864" />
<rect x="11.6417" y="0.0000" width="0.5292" height="20.1864" />
<rect x="13.7583" y="0.0000" width="0.5292" height="20.1864" />
<rect x="14.8167" y="0.0000" width="1.0583" height="20.1864" />
<rect x="17.4625" y="0.0000" width="0.5292" height="20.1864" />
<rect x="18.5208" y="0.0000" width="2.1167" height="20.1864" />
<rect x="21.1667" y="0.0000" width="1.5875" height="20.1864" />
<rect x="23.2833" y="0.0000" width="1.0583" height="20.1864" />
<rect x="24.8708" y="0.0000" width="1.0583" height="20.1864" />
<rect x="26.9875" y="0.0000" width="1.0583" height="20.1864" />
<rect x="29.1042" y="0.0000" width="0.5292" height="20.1864" />
<rect x="30.1625" y="0.0000" width="1.5875" height="20.1864" />
<rect x="32.2792" y="0.0000" width="2.1167" height="20.1864" />
<rect x="34.9250" y="0.0000" width="1.5875" height="20.1864" />
<rect x="38.1000" y="0.0000" width="0.5292" height="20.1864" />
<rect x="39.1583" y="0.0000" width="1.0583" height="20.1864" />
<rect x="40.7458" y="0.0000" width="1.0583" height="20.1864" />
<rect x="43.9208" y="0.0000" width="0.5292" height="20.1864" />
<rect x="44.9792" y="0.0000" width="0.5292" height="20.1864" />
<rect x="46.5667" y="0.0000" width="0.5292" height="20.1864" />
<rect x="47.6250" y="0.0000" width="2.1167" height="20.1864" />
<rect x="50.2708" y="0.0000" width="1.5875" height="20.1864" />
<rect x="52.3875" y="0.0000" width="1.0583" height="20.1864" />
<rect x="53.9750" y="0.0000" width="1.0583" height="20.1864" />
<rect x="56.0917" y="0.0000" width="1.0583" height="20.1864" />
<rect x="58.2083" y="0.0000" width="1.5875" height="20.1864" />
<rect x="60.8542" y="0.0000" width="0.5292" height="20.1864" />
<rect x="61.9125" y="0.0000" width="1.0583" height="20.1864" />
<rect x="64.0292" y="0.0000" width="0.5292" height="20.1864" />
<rect x="65.6167" y="0.0000" width="1.5875" height="20.1864" />
<rect x="67.7333" y="0.0000" width="1.0583" height="20.1864" />
<rect x="69.8500" y="0.0000" width="0.5292" height="20.1864" />
<rect x="70.9083" y="0.0000" width="0.5292" height="20.1864" />
<rect x="73.0250" y="0.0000" width="1.0583" height="20.1864" />
<rect x="75.6708" y="0.0000" width="1.0583" height="20.1864" />
<rect x="77.2583" y="0.0000" width="1.5875" height="20.1864" />
<rect x="79.3750" y="0.0000" width="0.5292" height="20.1864" />
<rect x="81.4917" y="0.0000" width="1.0583" height="20.1864" />
<rect x="83.0792" y="0.0000" width="1.0583" height="20.1864" />
<rect x="85.1958" y="0.0000" width="1.0583" height="20.1864" />
<rect x="87.3125" y="0.0000" width="0.5292" height="20.1864" />
<rect x="88.3708" y="0.0000" width="1.5875" height="20.1864" />
<rect x="90.4875" y="0.0000" width="2.1167" height="20.1864" />
<rect x="93.1333" y="0.0000" width="0.5292" height="20.1864" />
<rect x="94.7208" y="0.0000" width="0.5292" height="20.1864" />
<rect x="95.7792" y="0.0000" width="1.0583" height="20.1864" />
<rect x="98.9542" y="0.0000" width="0.5292" height="20.1864" />
<rect x="100.0125" y="0.0000" width="1.0583" height="20.1864" />
<rect x="102.6583" y="0.0000" width="1.5875" height="20.1864" />
<rect x="104.7750" y="0.0000" width="0.5292" height="20.1864" />
<rect x="105.8333" y="0.0000" width="2.1167" height="20.1864" />
<rect x="108.4792" y="0.0000" width="1.5875" height="20.1864" />
<rect x="110.5958" y="0.0000" width="1.0583" height="20.1864" />
<rect x="112.1833" y="0.0000" width="1.0583" height="20.1864" />
<rect x="114.3000" y="0.0000" width="1.0583" height="20.1864" />
<rect x="116.4167" y="0.0000" width="1.0583" height="20.1864" />
<rect x="118.5333" y="0.0000" width="1.5875" height="20.1864" />
<rect x="121.1792" y="0.0000" width="0.5292" height="20.1864" />
<rect x="122.2375" y="0.0000" width="0.5292" height="20.1864" />
<rect x="123.8250" y="0.0000" width="1.5875" height="20.1864" />
<rect x="126.4708" y="0.0000" width="1.0583" height="20.1864" />
<rect x="128.0583" y="0.0000" width="0.5292" height="20.1864" />
<rect x="130.1750" y="0.0000" width="0.5292" height="20.1864" />
<rect x="132.2917" y="0.0000" width="1.0583" height="20.1864" />
<rect x="133.8792" y="0.0000" width="1.5875" height="20.1864" />
<rect x="135.9958" y="0.0000" width="0.5292" height="20.1864" />
<rect x="137.0542" y="0.0000" width="1.0583" height="20.1864" />
<rect x="139.7000" y="0.0000" width="2.1167" height="20.1864" />
<rect x="142.8750" y="0.0000" width="0.5292" height="20.1864" />
<rect x="143.9333" y="0.0000" width="0.5292" height="20.1864" />
<rect x="145.5208" y="0.0000" width="1.0583" height="20.1864" />
<rect x="148.1667" y="0.0000" width="1.5875" height="20.1864" />
<rect x="150.2833" y="0.0000" width="0.5292" height="20.1864" />
<rect x="151.3417" y="0.0000" width="1.0583" height="20.1864" />
</g>
<g fill="rgb(0%,0%,0%)">
<text x="76.2000" y="25.2821" transform="rotate(360 76.2000,25.2821)" text-anchor="middle" font-family="Arial" font-size="5.6444" >1234 5678 90AS 6543 21CV</text>
</g>
</svg>
