<svg width="26" height="26" viewBox="0 0 26 26" fill="none" xmlns="http://www.w3.org/2000/svg">
<g id="ic:baseline-luggage">
<path id="Vector" d="M18.4167 6.49999H16.25V3.24999C16.25 2.65416 15.7625 2.16666 15.1667 2.16666H10.8334C10.2375 2.16666 9.75002 2.65416 9.75002 3.24999V6.49999H7.58335C6.39169 6.49999 5.41669 7.47499 5.41669 8.66666V20.5833C5.41669 21.775 6.39169 22.75 7.58335 22.75C7.58335 23.3458 8.07085 23.8333 8.66669 23.8333C9.26252 23.8333 9.75002 23.3458 9.75002 22.75H16.25C16.25 23.3458 16.7375 23.8333 17.3334 23.8333C17.9292 23.8333 18.4167 23.3458 18.4167 22.75C19.6084 22.75 20.5834 21.775 20.5834 20.5833V8.66666C20.5834 7.47499 19.6084 6.49999 18.4167 6.49999ZM10.2917 19.5H8.66669V9.74999H10.2917V19.5ZM13.8125 19.5H12.1875V9.74999H13.8125V19.5ZM14.625 6.49999H11.375V3.79166H14.625V6.49999ZM17.3334 19.5H15.7084V9.74999H17.3334V19.5Z" fill="#979797"/>
</g>
</svg>
