<svg xmlns="http://www.w3.org/2000/svg" width="20" height="18" viewBox="0 0 20 18" fill="none">
  <path d="M19.1017 15.6H1.02165C0.758777 15.6 0.545861 15.8685 0.545861 16.2V17.4C0.545861 17.7315 0.758777 18 1.02165 18H19.1017C19.3646 18 19.5775 17.7315 19.5775 17.4V16.2C19.5775 15.8685 19.3646 15.6 19.1017 15.6ZM2.94117 11.5977C3.12792 11.8542 3.39019 11.9997 3.66467 11.9993L7.54652 11.9926C7.85287 11.9921 8.15482 11.9006 8.42792 11.7256L17.0802 6.1888C17.8753 5.67993 18.5881 4.95357 19.0731 4.00221C19.6176 2.93423 19.6768 2.16136 19.4618 1.61537C19.2474 1.069 18.7261 0.66776 17.7296 0.586011C16.842 0.513263 15.9591 0.808008 15.1639 1.3165L12.2345 3.1911L5.73108 0.113894C5.65289 0.0474663 5.56204 0.00858352 5.46794 0.00126566C5.37384 -0.0060522 5.27989 0.0184604 5.19582 0.0722692L3.24062 1.32363C2.92333 1.5265 2.8466 2.06049 3.08688 2.39348L7.73238 6.07218L4.66323 8.0364L2.51177 6.6688C2.43764 6.62167 2.35577 6.59718 2.27276 6.59731C2.18975 6.59744 2.10793 6.62219 2.0339 6.66955L0.840554 7.43341C0.5301 7.63216 0.448324 8.1504 0.674919 8.48639L2.94117 11.5977Z" fill="white"/>
</svg>