<svg xmlns="http://www.w3.org/2000/svg" width="21" height="18" viewBox="0 0 21 18" fill="none">
  <path d="M10.3365 1.46325e-05C12.9371 0.00433318 15.2982 0.952018 17.0415 2.49261L18.443 1.19651C19.0364 0.647833 20.0508 1.03643 20.0508 1.81239V6.67743C20.0508 7.15846 19.6292 7.5484 19.109 7.5484H13.8482C13.0091 7.5484 12.5889 6.61025 13.1822 6.06155L14.8206 4.54643C13.6094 3.49767 12.0421 2.91674 10.3771 2.90346C6.75115 2.8745 3.69473 5.5881 3.72608 9.05256C3.75583 12.339 6.63703 15.0968 10.3186 15.0968C11.9326 15.0968 13.4579 14.5641 14.66 13.5887C14.8461 13.4377 15.1272 13.4469 15.3023 13.6088L16.8588 15.0481C17.05 15.2249 17.0405 15.5132 16.8399 15.6808C15.1142 17.1222 12.8273 18 10.3186 18C4.94371 18 0.586465 13.9706 0.586426 9.00008C0.586387 4.03524 4.96772 -0.00887649 10.3365 1.46325e-05Z" fill="#595959"/>
</svg>