<svg xmlns="http://www.w3.org/2000/svg" width="24" height="24" viewBox="0 0 24 24" fill="none">
  <path d="M23.8475 11.5331C23.6331 11.2398 18.5245 4.35156 11.9999 4.35156C5.47529 4.35156 0.366469 11.2398 0.152297 11.5328C-0.0507657 11.8111 -0.0507657 12.1885 0.152297 12.4667C0.366469 12.76 5.47529 19.6483 11.9999 19.6483C18.5245 19.6483 23.6331 12.76 23.8475 12.467C24.0508 12.1888 24.0508 11.8111 23.8475 11.5331ZM11.9999 18.0659C7.19383 18.0659 3.03127 13.494 1.79907 11.9994C3.02968 10.5035 7.18351 5.93397 11.9999 5.93397C16.8057 5.93397 20.968 10.505 22.2007 12.0005C20.9701 13.4963 16.8163 18.0659 11.9999 18.0659Z" fill="#2395FF"/>
  <path d="M11.9998 7.25269C9.38224 7.25269 7.25256 9.38236 7.25256 12C7.25256 14.6176 9.38224 16.7472 11.9998 16.7472C14.6174 16.7472 16.7471 14.6176 16.7471 12C16.7471 9.38236 14.6174 7.25269 11.9998 7.25269ZM11.9998 15.1648C10.2547 15.1648 8.83502 13.7451 8.83502 12C8.83502 10.2548 10.2547 8.83514 11.9998 8.83514C13.7449 8.83514 15.1646 10.2548 15.1646 12C15.1646 13.7451 13.745 15.1648 11.9998 15.1648Z" fill="#2395FF"/>
</svg>