<svg width="24" height="24" viewBox="0 0 24 24" fill="none" xmlns="http://www.w3.org/2000/svg">
<g id="ant-design:warning-filled">
<path id="Vector" d="M22.3993 20.0625L12.6493 3.1875C12.504 2.93672 12.2532 2.8125 12.0001 2.8125C11.747 2.8125 11.4939 2.93672 11.3509 3.1875L1.60089 20.0625C1.31261 20.5641 1.67354 21.1875 2.25011 21.1875H21.7501C22.3267 21.1875 22.6876 20.5641 22.3993 20.0625ZM11.2501 9.75C11.2501 9.64687 11.3345 9.5625 11.4376 9.5625H12.5626C12.6657 9.5625 12.7501 9.64687 12.7501 9.75V14.0625C12.7501 14.1656 12.6657 14.25 12.5626 14.25H11.4376C11.3345 14.25 11.2501 14.1656 11.2501 14.0625V9.75ZM12.0001 18C11.7057 17.994 11.4254 17.8728 11.2193 17.6625C11.0133 17.4522 10.8978 17.1695 10.8978 16.875C10.8978 16.5805 11.0133 16.2978 11.2193 16.0875C11.4254 15.8772 11.7057 15.756 12.0001 15.75C12.2945 15.756 12.5748 15.8772 12.7809 16.0875C12.987 16.2978 13.1024 16.5805 13.1024 16.875C13.1024 17.1695 12.987 17.4522 12.7809 17.6625C12.5748 17.8728 12.2945 17.994 12.0001 18Z" fill="#F24545"/>
</g>
</svg>
