<?xml version="1.0" standalone="no"?>
<!DOCTYPE svg PUBLIC "-//W3C//DTD SVG 20010904//EN"
 "http://www.w3.org/TR/2001/REC-SVG-20010904/DTD/svg10.dtd">
<svg version="1.0" xmlns="http://www.w3.org/2000/svg"
 width="800.000000pt" height="800.000000pt" viewBox="0 0 800.000000 800.000000"
 preserveAspectRatio="xMidYMid meet">
<metadata>
Created by potrace 1.14, written by Peter Selinger 2001-2017
</metadata>
<g transform="translate(0.000000,800.000000) scale(0.100000,-0.100000)"
fill="#000000" stroke="none">
<path d="M1994 6786 c-28 -13 -141 -88 -298 -198 -37 -27 -71 -48 -76 -48 -4
0 -10 -4 -12 -8 -1 -4 -61 -48 -133 -97 -200 -136 -260 -178 -265 -184 -3 -4
-25 -19 -49 -35 -59 -38 -90 -72 -114 -126 -29 -64 -31 -74 -31 -180 0 -83 4
-102 28 -152 15 -32 31 -58 35 -58 5 0 21 -12 38 -27 16 -16 54 -49 84 -74
125 -107 227 -194 264 -227 22 -19 60 -51 84 -71 24 -20 53 -45 65 -56 12 -11
44 -38 71 -60 27 -22 61 -52 76 -66 15 -15 36 -33 47 -40 10 -8 39 -32 64 -54
24 -22 66 -58 93 -80 26 -22 53 -45 59 -51 6 -5 43 -37 81 -69 39 -32 77 -65
86 -74 9 -9 38 -34 64 -56 27 -22 58 -49 71 -60 12 -11 40 -34 61 -52 21 -18
52 -44 68 -58 17 -15 52 -45 79 -68 188 -158 423 -361 431 -371 6 -7 20 -18
33 -25 12 -7 20 -16 17 -21 -5 -9 -156 -114 -193 -135 -10 -5 -24 -16 -32 -23
-15 -13 -147 -105 -350 -243 -63 -44 -133 -93 -155 -109 -22 -16 -47 -33 -55
-37 -8 -3 -48 -31 -87 -60 -40 -29 -75 -53 -78 -53 -3 0 -11 -5 -18 -11 -7 -5
-50 -37 -97 -69 -47 -32 -89 -62 -95 -67 -5 -4 -36 -25 -68 -46 l-58 -38 -105
73 c-57 40 -115 80 -128 88 -13 8 -92 62 -175 120 -84 58 -159 110 -169 115
-9 6 -19 12 -22 15 -7 7 -48 36 -180 125 -63 42 -117 81 -120 85 -6 9 -106 40
-112 35 -2 -2 -16 -6 -31 -9 -27 -5 -55 -22 -192 -117 -33 -23 -87 -60 -120
-82 -33 -22 -61 -44 -63 -49 -2 -4 -8 -8 -13 -8 -7 0 -80 -48 -124 -83 -5 -4
-31 -23 -57 -42 -34 -25 -56 -53 -79 -101 -29 -58 -33 -78 -35 -153 -1 -56 4
-104 14 -136 14 -43 198 -327 504 -775 32 -47 62 -92 68 -100 114 -174 265
-395 272 -398 5 -2 8 -9 8 -16 0 -7 9 -21 19 -33 10 -11 26 -33 35 -49 50 -90
129 -188 189 -236 92 -72 52 -69 1007 -68 471 0 867 2 880 5 14 2 42 6 64 9
76 12 190 67 315 154 69 48 151 104 181 124 30 21 87 60 125 88 39 28 77 53
85 57 8 4 21 12 27 19 7 7 29 22 50 35 21 13 40 26 43 29 3 4 23 19 46 33 22
14 48 33 57 42 10 9 17 14 17 10 0 -5 64 39 80 55 3 3 13 10 22 15 10 6 121
82 248 170 127 88 268 186 313 217 45 31 96 66 112 78 30 22 506 351 535 370
8 5 50 35 93 65 42 30 81 55 86 55 5 0 11 4 13 8 2 4 91 68 198 142 107 73
197 136 200 139 3 3 13 11 22 16 22 13 160 107 173 118 25 20 255 177 260 177
4 0 13 6 20 13 40 35 143 107 154 107 5 0 11 4 13 8 2 4 23 21 48 38 401 269
565 396 714 552 22 24 60 63 84 88 23 24 42 46 42 49 0 3 9 16 21 28 11 12 42
51 67 87 26 36 49 67 52 70 3 3 31 46 60 95 30 50 57 92 60 95 6 6 97 191 130
265 23 50 89 227 95 255 2 8 9 31 15 50 46 149 73 433 50 536 -5 21 -11 52
-14 69 -3 16 -11 43 -17 60 -60 160 -145 268 -272 349 -74 47 -239 109 -322
121 -11 2 -45 7 -75 11 -90 14 -401 7 -427 -9 -5 -3 -24 -8 -43 -11 -49 -8
-184 -49 -261 -80 -36 -14 -70 -26 -76 -26 -6 0 -13 -3 -15 -7 -1 -5 -46 -30
-98 -56 -76 -39 -369 -225 -390 -247 -5 -6 -153 -109 -260 -181 -36 -24 -69
-48 -75 -52 -5 -5 -91 -64 -190 -132 -99 -68 -185 -129 -192 -134 -7 -6 -16
-11 -22 -11 -5 0 -11 -4 -13 -8 -2 -6 -253 -183 -304 -214 -10 -7 -312 139
-338 163 -6 5 -18 9 -27 9 -10 0 -19 3 -21 8 -1 4 -75 44 -163 88 -88 45 -261
133 -385 196 -124 64 -319 164 -435 223 -115 58 -215 111 -222 116 -6 6 -18
12 -25 13 -7 1 -17 4 -23 8 -15 8 -283 146 -570 293 -137 70 -256 132 -262
137 -7 6 -13 7 -13 3 0 -4 -6 -3 -13 3 -7 6 -66 38 -130 71 -65 33 -131 70
-147 81 -17 12 -30 18 -30 14 0 -5 -5 -3 -12 4 -16 16 -75 15 -114 -2z"/>
</g>
</svg>
